<?xml version="1.0" ?><svg data-name="Layer 1" id="Layer_1" viewBox="0 0 512 512" xmlns="http://www.w3.org/2000/svg"><path d="M458.67,258.92V242.1A60.72,60.72,0,0,0,398,181.45H379.64C371.88,107.41,323.3,57.31,256,57.31s-115.87,50.1-123.63,124.14H114A60.72,60.72,0,0,0,53.33,242.1v16.82A48,48,0,0,0,41.7,351a6.69,6.69,0,0,0,9.24-6.18V315.22a9.08,9.08,0,0,1,18.15,0v29.61a6.7,6.7,0,0,0,3,5.56,6.77,6.77,0,0,0,3.72,1.13,6.55,6.55,0,0,0,2.54-.51A48,48,0,0,0,66.7,258.92V242.1A47.33,47.33,0,0,1,114,194.82h17.47c-.1,2.56-.29,5.05-.29,7.65V407.38a6.68,6.68,0,0,0,6.68,6.68h23.55A47.11,47.11,0,0,0,146.91,448a6.68,6.68,0,0,0,6.69,6.68H230a6.68,6.68,0,0,0,6.69-6.68V414.06h38.65V448a6.68,6.68,0,0,0,6.69,6.68H358.4a6.68,6.68,0,0,0,6.69-6.68,47.11,47.11,0,0,0-14.48-33.95h23.55a6.68,6.68,0,0,0,6.69-6.68V202.47c0-2.6-.19-5.09-.29-7.65H398A47.33,47.33,0,0,1,445.3,242.1v16.82A48,48,0,0,0,433.69,351a6.55,6.55,0,0,0,2.54.51,6.77,6.77,0,0,0,3.72-1.13,6.7,6.7,0,0,0,3-5.56V315.22a9.08,9.08,0,0,1,18.15,0v29.61A6.69,6.69,0,0,0,470.3,351a48,48,0,0,0-11.63-92.09ZM94.84,306.45a34.7,34.7,0,0,1-12.38,26.62V315.22a22.45,22.45,0,1,0-44.9,0v17.84a34.82,34.82,0,1,1,57.28-26.61ZM256,70.68c65.63,0,111.47,54.2,111.47,131.79V322.82H144.53V202.47C144.53,124.88,190.37,70.68,256,70.68ZM223.3,441.32H160.94a34,34,0,0,1,33.29-27.26H223.3Zm127.76,0H288.7V414.06h29.07A34,34,0,0,1,351.06,441.32Zm-33.29-40.63H144.53v-64.5H367.47v64.5Zm156.67-67.62V315.22a22.45,22.45,0,0,0-44.9,0v17.85a34.83,34.83,0,1,1,44.9,0Z"/><path d="M256,234.78a70.69,70.69,0,1,0-70.69-70.69A70.77,70.77,0,0,0,256,234.78Zm0-128a57.32,57.32,0,1,1-57.31,57.32A57.38,57.38,0,0,1,256,106.77Z"/><path d="M256,203.19a39.1,39.1,0,1,0-39.1-39.1A39.14,39.14,0,0,0,256,203.19Zm0-64.83a25.73,25.73,0,1,1-25.73,25.73A25.76,25.76,0,0,1,256,138.36Z"/><path d="M327.2,346.32H284.5a6.69,6.69,0,0,0,0,13.38h42.7a6.69,6.69,0,0,0,0-13.38Z"/></svg>